<?xml version="1.0" encoding="iso-8859-1"?>
<!-- Generator: Adobe Illustrator 19.0.0, SVG Export Plug-In . SVG Version: 6.00 Build 0)  -->
<svg version="1.1" id="Capa_1" xmlns="http://www.w3.org/2000/svg" xmlns:xlink="http://www.w3.org/1999/xlink" x="0px" y="0px"
	 viewBox="0 0 485.629 485.629" style="enable-background:new 0 0 485.629 485.629;" xml:space="preserve">
<g>
	<rect x="126.291" y="235" width="40" height="40"/>
	<rect x="126.291" y="75" width="40" height="40"/>
	<rect x="126.291" y="155" width="40" height="40"/>
	<rect x="206.291" y="75" width="40" height="40"/>
	<rect x="206.291" y="155" width="40" height="40"/>
	<path d="M321.292,226.409V0h-270v445h162.116c23.35,25.008,56.354,40.629,92.885,40.629c70.605,0,128.046-58.344,128.046-130.059
		C434.338,289.01,384.854,233.978,321.292,226.409z M81.291,415V30h210v196.409c-63.562,7.568-113.046,62.601-113.046,129.161
		c0,21.399,5.117,41.606,14.17,59.43H81.291z M306.292,455.629c-54.063,0-98.046-44.886-98.046-100.059
		s43.983-100.058,98.046-100.058s98.046,44.886,98.046,100.058S360.354,455.629,306.292,455.629z"/>
	<polygon points="326.553,327.581 306.292,291.743 286.03,327.581 246.853,335.997 273.661,366.211 269.384,407.058 
		306.292,390.269 343.199,407.058 338.922,366.211 365.73,335.997 	"/>
</g>
<g>
</g>
<g>
</g>
<g>
</g>
<g>
</g>
<g>
</g>
<g>
</g>
<g>
</g>
<g>
</g>
<g>
</g>
<g>
</g>
<g>
</g>
<g>
</g>
<g>
</g>
<g>
</g>
<g>
</g>
</svg>
